<?xml version="1.0" encoding="UTF-8"?>
<svg width="160px" height="29px" viewBox="0 0 160 29" version="1.1" xmlns="http://www.w3.org/2000/svg" xmlns:xlink="http://www.w3.org/1999/xlink">
    <!-- Generator: Sketch 58 (84663) - https://sketch.com -->
    <title>gs-logo-on-dark</title>
    <desc>Created with Sketch.</desc>
    <defs>
        <path d="M17.0753999,28.1407035 L17.0713586,28.1407035 C16.8794505,28.1390837 16.74598,27.9068949 16.8763929,27.7329505 C17.1543085,27.3622398 17.44239,26.862168 17.5532126,26.302369 C16.9263633,26.5042355 16.2628595,26.6169419 15.5741557,26.6189519 C14.8016906,26.6213927 14.0611551,26.4826992 13.3671536,26.2357502 C13.4670944,26.8221106 13.7664872,27.3468772 14.0549983,27.7319454 C14.2047663,27.9316583 14.0067461,28.2081838 13.7720713,28.1244795 C10.8623336,27.08715 9.95255731,25.3674085 9.83829834,23.7754487 C5.55530529,23.4607322 2.16963172,19.8913137 2.15602946,15.5137114 C2.14385902,11.5975592 4.83596062,8.31399856 8.46747711,7.41880833 L7.67983479,4.93797559 C7.51517588,4.74357502 7.22322847,4.72275664 7.03279686,4.89188801 L0.664935636,10.5807609 C0.379328749,10.834345 0.00279566286,10.5871204 -1.06068224e-09,10.2859 L-1.06068224e-09,10.2791523 C0.000758335202,10.1974858 0.0290999982,10.1121144 0.0942135327,10.0318737 L7.49169409,0.554486719 C7.91651408,0.0307250538 8.72319956,0.0605886576 9.10835823,0.614357502 L12.1415186,5.00545585 C13.1797288,4.43460158 14.4025002,4.11184494 15.7309396,4.10768126 C16.9548565,4.10380474 18.1078984,4.40947595 19.1090246,4.9724336 L22.2412666,0.48068916 C22.6264253,-0.0730796841 23.4331108,-0.102943288 23.8579307,0.420818378 L31.2555545,9.89806174 C31.5631087,10.2772434 31.0496593,10.7709978 30.6846892,10.4470926 L24.316828,4.75821967 C24.1262532,4.5890883 23.8345921,4.60990668 23.6699332,4.80430725 L22.8632477,7.34472362 C26.5521801,8.17961235 29.3150134,11.4730797 29.327327,15.4261307 C29.3413588,19.9452979 25.7563764,23.6258435 21.2783699,23.7580761 C21.082927,25.3554917 20.0952599,27.0844221 17.1593199,28.1254846 C17.1306027,28.1356685 17.1024402,28.1407035 17.0753998,28.1407035 L17.0753999,28.1407035 Z" id="path-1"></path>
        <linearGradient x1="9.8202352%" y1="100%" x2="9.8202352%" y2="0%" id="linearGradient-3">
            <stop stop-color="#D04358" offset="0%"></stop>
            <stop stop-color="#E87F2C" offset="100%"></stop>
        </linearGradient>
    </defs>
    <g id="Symbols" stroke="none" stroke-width="1" fill="none" fill-rule="evenodd">
        <g id="Nav/Desktop/Dark-bg" transform="translate(-120.000000, -23.000000)">
            <g id="Navigation" transform="translate(120.000000, 15.000000)">
                <g id="gs-logo-on-dark" transform="translate(0.000000, 8.000000)">
                    <g id="Group-3">
                        <mask id="mask-2" fill="white">
                            <use xlink:href="#path-1"></use>
                        </mask>
                        <g id="Clip-2"></g>
                        <polygon id="Fill-1" fill="url(#linearGradient-3)" mask="url(#mask-2)" points="0 28.1407035 159.617485 28.1407035 159.617485 0.0459440057 0 0.0459440057"></polygon>
                    </g>
                    <path d="M5.13975362,18.800865 C6.84616748,21.6323759 9.8882463,22.8897927 11.9340621,21.6092894 C13.9800204,20.3287861 14.2553036,16.99547 12.5487473,14.1639591 C10.8421909,11.3324482 7.80025459,10.0750314 5.75429629,11.3555347 C3.70833798,12.6358928 3.43319727,15.9693541 5.13975362,18.800865" id="Fill-4" fill="#FFFFFE"></path>
                    <path d="M7.31690235,19.2964824 C7.31690235,19.2964824 7.2361809,19.0329956 7.2361809,18.5519824 C7.2361809,18.0705409 7.31690235,17.8297488 7.31690235,17.8297488 L9.54645449,16.8901315 L7.31690235,15.9390954 C7.31690235,15.9390954 7.2361809,15.6754659 7.2361809,15.2057286 C7.2361809,14.7130112 7.31690235,14.4723618 7.31690235,14.4723618 L11.1754161,16.1109471 C11.1754161,16.1109471 11.2562814,16.3858526 11.2562814,16.867294 C11.2562814,17.3371741 11.1754161,17.6580399 11.1754161,17.6580399 L7.31690235,19.2964824" id="Fill-5" fill="#D44941"></path>
                    <path d="M26.6317639,18.816986 C24.9337129,21.6444584 21.8928499,22.8913857 19.8399823,21.6019822 C17.7869739,20.3127228 17.499319,16.9753925 19.19737,14.1477761 C20.8955618,11.3203037 23.9362839,10.0735204 25.9892924,11.3627799 C28.04216,12.6521833 28.3298149,15.9895136 26.6317639,18.816986" id="Fill-6" fill="#FFFFFE"></path>
                    <path d="M19.7768121,17.6884422 C19.7768121,17.6884422 19.6984925,17.4689048 19.6984925,16.8845898 C19.6984925,16.2997717 19.7768121,16.080402 19.7768121,16.080402 L24.835946,16.080402 C24.835946,16.080402 24.9246231,16.2997717 24.9246231,16.8845898 C24.9246231,17.4689048 24.835946,17.6884422 24.835946,17.6884422 L19.7768121,17.6884422" id="Fill-7" fill="#D44941"></path>
                    <path d="M47.1409444,14.3998593 C47.6801084,14.3998593 47.7916398,14.647319 47.7467692,15.0305149 L47.2534793,19.0633462 C47.0057591,20.9998875 45.7036514,22.9145729 41.3685487,22.9145729 C37.5506765,22.9145729 36.1809045,21.2703533 36.1809045,19.4912603 C36.1809045,19.3328056 36.2028381,19.0853458 36.2257751,18.8827481 L37.1687746,11.0884141 C37.3935577,9.15086631 38.7184592,7.2361809 43.0527017,7.2361809 C46.871434,7.2361809 48.241206,8.88040046 48.241206,10.6823558 C48.241206,10.8179482 48.2184123,11.0434083 48.1964788,11.2910118 L48.1288145,11.899524 C48.0840872,12.3724439 47.8820978,12.5750416 47.4105981,12.5750416 L45.096823,12.5750416 C44.6253233,12.5750416 44.4682045,12.3045758 44.5358688,11.899524 L44.557659,11.741932 C44.580596,11.58434 44.580596,11.4714662 44.580596,11.3807357 C44.580596,10.6374939 43.9290404,10.2773041 42.8955829,10.2773041 C41.8181149,10.2773041 40.9417762,10.7052182 40.8074511,11.741932 L39.9987767,18.2292301 C39.975983,18.3868221 39.9540494,18.5674203 39.9540494,18.6801503 C39.9540494,19.5132599 40.582668,19.8734497 41.6609961,19.8734497 C42.873506,19.8734497 43.6146595,19.4453918 43.727051,18.4098283 L43.8394426,17.4409825 L41.9973106,17.4409825 C41.5256675,17.4409825 41.3466152,17.2383847 41.413276,16.7874645 L41.6382024,15.0305149 C41.6829297,14.5575951 41.9077128,14.3998593 42.3792125,14.3998593 L47.1409444,14.3998593" id="Fill-8" fill="#FFFFFF"></path>
                    <path d="M54.0197563,9.77040806 C53.9489205,10.2412895 53.7605755,10.4211093 53.2669765,10.4211093 L50.8456552,10.4211093 C50.3520562,10.4211093 50.1865227,10.2412895 50.2573584,9.77040806 L50.4926771,7.90864376 C50.5635128,7.43776227 50.7748194,7.2361809 51.2685685,7.2361809 L53.6907903,7.2361809 C54.1843893,7.2361809 54.3250102,7.43776227 54.2541745,7.90864376 L54.0197563,9.77040806 Z M52.4202494,22.2411078 C52.3504642,22.7128483 52.1621192,22.9145729 51.6683702,22.9145729 L49.2461483,22.9145729 C48.7525493,22.9145729 48.5880664,22.7128483 48.6589021,22.2411078 L49.9282424,12.3722108 C49.9752161,11.9013293 50.1865227,11.6996048 50.6811722,11.6996048 L53.1023435,11.6996048 C53.5959425,11.6996048 53.7605755,11.9013293 53.6907903,12.3722108 L52.4202494,22.2411078 L52.4202494,22.2411078 Z" id="Fill-9" fill="#FFFFFF"></path>
                    <path d="M58.3843489,18.8707013 C58.3615205,19.051839 58.3615205,19.141831 58.3615205,19.1869713 C58.3615205,19.5261719 58.4740832,19.819367 59.1494598,19.819367 C60.0043052,19.819367 60.9707082,19.2319673 61.4887267,18.8927666 L61.9381163,15.2780877 C61.5106937,14.938887 60.6788203,14.3514873 59.823975,14.3514873 C59.0140687,14.3514873 58.9015059,14.8487508 58.8337385,15.3010183 L58.3843489,18.8707013 Z M61.2406292,21.672712 C60.5432856,22.1691102 59.5540541,22.9145729 57.7318007,22.9145729 C55.7753047,22.9145729 54.6733668,21.8307749 54.6733668,20.0455008 C54.6733668,19.864363 54.6953338,19.6613041 54.7181622,19.4350261 L55.302943,14.7356839 C55.5730075,12.5891438 56.562239,11.2562814 58.9463013,11.2562814 C60.5662576,11.2562814 61.6910238,11.9336732 62.2758046,12.4310809 L62.3653954,12.1148109 C62.5009302,11.6625434 62.6134929,11.4372749 63.085711,11.4372749 L65.3572105,11.4372749 C65.6948988,11.4372749 65.9869302,11.595482 65.9200243,12.1148109 L64.7046623,22.0560433 C64.6378999,22.5312415 64.4347413,22.7344446 63.9625233,22.7344446 L61.8035866,22.7344446 C61.4209593,22.7344446 61.2406292,22.5533069 61.2406292,22.0560433 L61.2406292,21.672712 L61.2406292,21.672712 Z" id="Fill-10" fill="#FFFFFF"></path>
                    <path d="M71.240384,11.8357863 C71.7125049,11.8357863 71.8250445,12.0125739 71.8250445,12.4777375 L71.8250445,12.8545074 C72.4994208,12.3452175 73.6239555,11.6582915 75.3331507,11.6582915 C77.1100993,11.6582915 78.3919598,12.766255 78.3919598,14.3618695 C78.3919598,14.427776 78.3919598,14.5168769 78.3471736,14.9379144 L77.4477181,22.2492856 C77.3801082,22.7152978 77.1778527,22.9145729 76.7057319,22.9145729 L74.4336952,22.9145729 C74.0512902,22.9145729 73.7812813,22.7810628 73.8490347,22.2492856 L74.6359507,15.8241155 C74.6817416,15.4247168 74.6817416,15.3589518 74.6817416,15.3138356 C74.6817416,14.8713008 74.5014486,14.6936646 73.9167882,14.6936646 C73.0392951,14.6936646 72.0501237,15.2480706 71.5780028,15.5798657 L70.7452959,22.2492856 C70.6785473,22.7152978 70.4983978,22.9145729 70.0261334,22.9145729 L67.7094541,22.9145729 C67.3049431,22.9145729 67.0798639,22.7595655 67.1476174,22.2492856 L68.3617244,12.4777375 C68.4066541,12.0125739 68.6089096,11.8357863 69.0818917,11.8357863 L71.240384,11.8357863" id="Fill-11" fill="#FFFFFF"></path>
                    <path d="M84.302346,18.4940458 C84.2792139,18.6924911 84.2792139,18.7805794 84.2792139,18.8686677 C84.2792139,19.4211574 84.6445267,19.6421533 85.6015269,19.6421533 L86.1488414,19.6421533 C86.6494552,19.6421533 86.8099252,19.9071228 86.7635154,20.3042953 L86.5586726,21.8719848 C86.4900037,22.3355406 86.2850153,22.5125628 85.8065152,22.5125628 L84.6667859,22.5125628 C81.6807066,22.5125628 80.5419956,21.6070153 80.5419956,19.7742152 C80.5419956,19.5532193 80.5641094,19.3106594 80.5872415,19.0680995 L81.1798018,14.275956 L80.1765374,14.275956 C79.6757781,14.275956 79.5617178,14.0551011 79.6071091,13.635519 L79.7667062,12.2886844 C79.8120975,11.8251286 80.0402179,11.7147716 80.5185726,11.6482473 L81.5211096,11.5161854 L81.5443872,11.5161854 L81.7947668,9.50650405 C81.8410311,9.04280733 82.0684241,8.84422111 82.5469242,8.84422111 L84.8950518,8.84422111 C85.3735519,8.84422111 85.4876121,9.08692194 85.4420753,9.50650405 L85.1908228,11.5161854 L87.0371727,11.5161854 C87.5388049,11.5161854 87.6761427,11.7587453 87.629733,12.1342128 L87.4478768,13.635519 C87.4024855,14.0990748 87.1510874,14.275956 86.6725873,14.275956 L84.8263829,14.275956 L84.302346,18.4940458" id="Fill-12" fill="#FFFFFF"></path>
                    <path d="M100.020245,11.58434 L100.020245,11.4486038 C100.020245,10.5247638 99.3926697,10.164574 98.4058046,10.164574 C97.3751551,10.164574 96.6353998,10.5476262 96.5004695,11.58434 L96.4785774,11.8087936 L96.4785774,11.944386 C96.4785774,12.5301796 96.8589003,12.6877717 97.0832594,12.7776394 L100.692321,14.0616692 C102.149797,14.5795947 103.091017,15.7060325 103.091017,17.1027923 C103.091017,17.2603844 103.069125,17.4181202 103.046374,17.6664426 L102.889552,19.0633462 C102.665193,20.9998875 101.230468,22.9145729 96.9710798,22.9145729 C93.1376591,22.9145729 91.6582915,21.2483537 91.6582915,19.4453918 C91.6582915,19.3328056 91.6582915,19.1980759 91.7030774,18.8827481 L91.8597567,17.5537125 C91.9055443,17.0807927 92.1289018,16.8773322 92.6003706,16.8773322 L94.9316731,16.8773322 C95.4022834,16.8773322 95.5364982,17.1256547 95.4698201,17.5537125 L95.3576405,18.3868221 C95.3347467,18.5445579 95.3347467,18.6571442 95.3347467,18.7928804 C95.3347467,19.6709957 96.1192881,19.9863235 97.1954389,19.9863235 C98.293625,19.9863235 99.1454168,19.6031276 99.3023823,18.5674203 L99.3478837,18.2740921 C99.369919,18.1165001 99.369919,18.0266324 99.369919,18.00377 C99.369919,17.2833905 98.3163757,16.8773322 97.6214064,16.6078729 L94.5504916,15.3907047 C93.6537708,15.0533773 92.801979,14.0616692 92.801979,12.7776394 C92.801979,12.6429097 92.8240142,12.4403119 92.8467649,12.2148518 L92.9806936,11.0884141 C93.2051957,9.15086631 94.4383121,7.2361809 98.6301636,7.2361809 C102.396048,7.2361809 103.718593,8.90340659 103.718593,10.6374939 C103.718593,10.7282243 103.718593,10.8179482 103.696701,11.0884141 L103.606413,11.9215236 C103.561771,12.3944435 103.337268,12.597904 102.866658,12.597904 L100.535499,12.597904 C100.109531,12.597904 99.9527088,12.4403119 99.9973517,11.9215236 L100.020245,11.58434" id="Fill-13" fill="#FFFFFF"></path>
                    <path d="M120.760137,11.2562814 C121.232085,11.2562814 121.546908,11.4587491 121.344726,11.9313652 L117.253462,21.9042977 C117.073235,22.355072 116.983552,22.5125628 116.511604,22.5125628 L113.7465,22.5125628 C113.273834,22.5125628 113.184152,22.3100952 113.139238,21.9042977 L112.756974,17.6049138 C112.712204,17.1541395 112.689245,16.3893894 112.689245,16.3663981 C112.667291,16.3893894 112.465109,17.0864587 112.262067,17.6049138 L110.441862,21.9042977 C110.261635,22.3100952 110.172096,22.5125628 109.699144,22.5125628 L107.001911,22.5125628 C106.529963,22.5125628 106.462235,22.3320807 106.395367,21.9042977 L104.93375,11.9313652 C104.866165,11.4587491 105.180701,11.2562814 105.652649,11.2562814 L107.811353,11.2562814 C108.283301,11.2562814 108.440569,11.5265736 108.485339,11.9313652 L109.160472,16.9288242 C109.227196,17.4692648 109.205242,18.0775299 109.205242,18.0993717 C109.205242,18.0545385 109.430238,17.3794548 109.609461,16.9288242 L111.632852,11.9313652 C111.79012,11.5265736 111.970347,11.2562814 112.442294,11.2562814 L114.62281,11.2562814 C115.094757,11.2562814 115.252169,11.5265736 115.296938,11.9313652 L115.746932,16.9288242 C115.791701,17.4244316 115.81466,18.0545385 115.81466,18.0993717 C115.81466,18.0545385 116.016841,17.3794548 116.197068,16.9288242 L118.084859,11.9313652 C118.24227,11.5265736 118.422354,11.2562814 118.894301,11.2562814 L120.760137,11.2562814" id="Fill-14" fill="#FFFFFF"></path>
                    <path d="M125.118045,18.8707013 C125.096223,19.051839 125.096223,19.141831 125.096223,19.1869713 C125.096223,19.5261719 125.208638,19.819367 125.883133,19.819367 C126.737951,19.819367 127.705186,19.2319673 128.222327,18.8927666 L128.672564,15.2780877 C128.245154,14.938887 127.412302,14.3514873 126.557627,14.3514873 C125.748751,14.3514873 125.636048,14.8487508 125.568426,15.3010183 L125.118045,18.8707013 Z M127.975098,21.672712 C127.27792,22.1691102 126.287571,22.9145729 124.466522,22.9145729 C122.508939,22.9145729 121.407035,21.8307749 121.407035,20.0455008 C121.407035,19.864363 121.430006,19.6613041 121.451973,19.4350261 L122.036735,14.7356839 C122.306648,12.5891438 123.296854,11.2562814 125.680985,11.2562814 C127.300748,11.2562814 128.424474,11.9336732 129.009237,12.4310809 L129.09983,12.1148109 C129.234499,11.6625434 129.347058,11.4372749 129.819261,11.4372749 L132.091552,11.4372749 C132.428368,11.4372749 132.721252,11.595482 132.653486,12.1148109 L131.439024,22.0560433 C131.371402,22.5312415 131.169111,22.7344446 130.696908,22.7344446 L128.537033,22.7344446 C128.154561,22.7344446 127.975098,22.5533069 127.975098,22.0560433 L127.975098,21.672712 L127.975098,21.672712 Z" id="Fill-15" fill="#FFFFFF"></path>
                    <path d="M142.29905,12.3009499 L142.077275,14.0292259 C142.01169,14.4943895 141.811541,14.6278996 141.325021,14.6936646 C139.818534,14.8713008 138.711214,15.4914719 138.202079,15.9125093 L137.42735,22.2492856 C137.360634,22.7152978 137.18409,22.9145729 136.718207,22.9145729 L134.43784,22.9145729 C133.972805,22.9145729 133.818029,22.7152978 133.883756,22.2492856 L135.080125,12.4777375 C135.145994,12.0125739 135.323527,11.8357863 135.78842,11.8357863 L137.914718,11.8357863 C138.379612,11.8357863 138.490428,12.0125739 138.490428,12.4777375 L138.467954,13.0988986 C139.087906,12.4777375 140.018542,11.6582915 141.700724,11.6582915 C142.166466,11.6582915 142.365625,11.8357863 142.29905,12.3009499" id="Fill-16" fill="#FFFFFF"></path>
                    <path d="M146.4115,11.8357863 C146.883932,11.8357863 146.974397,12.0125739 146.974397,12.4777375 L146.974397,12.8545074 C147.626324,12.3452175 148.526671,11.6582915 150.371881,11.6582915 C151.631219,11.6582915 152.778552,12.2343363 153.183493,13.1205374 C153.790904,12.6778612 154.712791,11.6582915 156.941403,11.6582915 C158.696147,11.6582915 160,12.7436262 160,14.2952559 C160,14.427776 160,14.5168769 159.978461,14.7377908 L159.055138,22.2492856 C158.987647,22.7152978 158.785177,22.9145729 158.312746,22.9145729 L156.041055,22.9145729 C155.65909,22.9145729 155.410668,22.6928104 155.456619,22.2492856 L156.243526,15.8241155 C156.288041,15.4247168 156.288041,15.3589518 156.288041,15.3138356 C156.288041,14.8713008 156.041055,14.6936646 155.522673,14.6936646 C154.646737,14.6936646 153.74639,15.2255832 153.295498,15.5798657 L153.295498,15.6248405 L152.485616,22.2492856 C152.418126,22.7152978 152.215655,22.9145729 151.743224,22.9145729 L149.471534,22.9145729 C149.089568,22.9145729 148.842583,22.6928104 148.887097,22.2492856 L149.696979,15.6464793 C149.718519,15.4247168 149.718519,15.3589518 149.718519,15.3138356 C149.718519,14.8713008 149.471534,14.6936646 148.953152,14.6936646 C148.077215,14.6936646 147.198407,15.2255832 146.748951,15.5798657 L145.91753,22.2492856 C145.85004,22.7152978 145.669109,22.9145729 145.196677,22.9145729 L142.879754,22.9145729 C142.4751,22.9145729 142.272774,22.6928104 142.317719,22.2492856 L143.532399,12.4777375 C143.599889,12.0125739 143.779384,11.8357863 144.253251,11.8357863 L146.4115,11.8357863" id="Fill-17" fill="#FFFFFF"></path>
                </g>
            </g>
        </g>
    </g>
</svg>